<svg id="svg" version="1.1" width="400" height="392.8" viewBox="0 0 400 392.8" xmlns="http://www.w3.org/2000/svg" xmlns:xlink="http://www.w3.org/1999/xlink" ><g id="svgg"><path id="path0" d="M186.300 3.914 C 159.971 8.558,75.481 23.251,9.550 34.649 L 0.001 36.300 0.000 195.507 L 0.000 354.715 10.050 356.468 C 19.212 358.065,36.169 361.000,99.900 372.017 C 138.331 378.660,167.942 383.865,193.731 388.509 L 207.561 391.000 221.981 391.000 L 236.400 391.000 236.400 370.604 L 236.400 350.209 309.250 350.144 C 388.776 350.073,384.114 350.141,388.743 348.987 C 396.040 347.168,397.939 344.637,399.459 334.700 L 399.888 331.900 399.953 195.000 C 400.020 56.405,400.009 54.024,399.304 50.022 C 398.689 46.527,397.244 42.644,395.906 40.890 C 395.029 39.741,391.125 37.979,387.900 37.277 C 383.291 36.274,387.410 36.327,309.150 36.256 L 236.400 36.190 236.400 18.095 L 236.400 0.000 222.350 0.016 L 208.300 0.033 186.300 3.914 M386.400 193.200 L 386.400 336.400 311.300 336.400 L 236.200 336.400 236.200 322.700 L 236.200 309.000 254.400 309.000 L 272.600 309.000 272.600 293.200 L 272.600 277.400 254.400 277.400 L 236.200 277.400 236.200 268.200 L 236.200 259.000 254.400 259.000 L 272.600 259.000 272.600 243.200 L 272.600 227.400 254.400 227.400 L 236.200 227.400 236.200 218.200 L 236.200 209.000 254.400 209.000 L 272.600 209.000 272.600 193.200 L 272.600 177.400 254.400 177.400 L 236.200 177.400 236.200 168.200 L 236.200 159.000 254.400 159.000 L 272.600 159.000 272.600 143.200 L 272.600 127.400 254.400 127.400 L 236.200 127.400 236.200 118.200 L 236.200 109.000 254.400 109.000 L 272.600 109.000 272.600 93.200 L 272.600 77.400 254.400 77.400 L 236.200 77.400 236.200 63.700 L 236.200 50.000 311.300 50.000 L 386.400 50.000 386.400 193.200 M290.800 93.200 L 290.800 109.000 322.600 109.000 L 354.400 109.000 354.400 93.200 L 354.400 77.400 322.600 77.400 L 290.800 77.400 290.800 93.200 M164.917 119.450 C 163.594 122.299,144.172 161.842,135.311 179.729 L 128.955 192.558 135.863 206.529 C 139.662 214.213,148.170 231.345,154.770 244.599 C 161.369 257.854,166.744 268.723,166.714 268.753 C 166.656 268.811,151.623 267.900,140.561 267.169 L 133.822 266.723 132.788 264.211 C 132.220 262.830,130.225 258.190,128.355 253.900 C 117.920 229.962,114.281 220.720,111.777 211.800 C 111.545 210.975,111.309 210.222,111.252 210.128 C 111.195 210.033,110.453 211.878,109.603 214.228 C 107.457 220.161,105.158 225.884,101.540 234.300 C 99.837 238.260,96.916 245.055,95.048 249.400 C 93.180 253.745,91.079 258.724,90.379 260.465 L 89.107 263.629 85.004 263.507 C 69.392 263.042,59.395 262.662,59.260 262.527 C 59.131 262.398,85.696 209.996,91.009 199.900 C 92.688 196.710,94.062 194.010,94.063 193.900 C 94.070 193.303,86.401 176.456,74.900 151.800 C 66.093 132.921,62.170 124.363,62.274 124.259 C 62.319 124.214,66.843 123.916,72.328 123.596 C 77.813 123.277,84.505 122.887,87.200 122.730 C 89.895 122.574,92.159 122.503,92.232 122.573 C 92.542 122.871,104.010 152.627,106.696 160.100 C 108.733 165.769,111.800 174.927,111.800 175.341 C 111.800 176.049,112.168 175.436,112.575 174.050 C 114.040 169.067,118.742 156.831,123.164 146.500 C 128.660 133.656,134.564 119.969,134.640 119.893 C 134.800 119.733,160.940 118.077,164.145 118.024 L 165.590 118.000 164.917 119.450 M290.800 143.200 L 290.800 159.000 322.600 159.000 L 354.400 159.000 354.400 143.200 L 354.400 127.400 322.600 127.400 L 290.800 127.400 290.800 143.200 M290.800 193.200 L 290.800 209.000 322.600 209.000 L 354.400 209.000 354.400 193.200 L 354.400 177.400 322.600 177.400 L 290.800 177.400 290.800 193.200 M290.800 243.200 L 290.800 259.000 322.600 259.000 L 354.400 259.000 354.400 243.200 L 354.400 227.400 322.600 227.400 L 290.800 227.400 290.800 243.200 M290.800 293.200 L 290.800 309.000 322.600 309.000 L 354.400 309.000 354.400 293.200 L 354.400 277.400 322.600 277.400 L 290.800 277.400 290.800 293.200 " stroke="none" fill="#1c7444" fill-rule="evenodd"></path><path id="path1" d="M386.299 193.300 C 386.299 272.060,386.322 304.310,386.350 264.966 C 386.378 225.623,386.378 161.183,386.350 121.766 C 386.322 82.350,386.299 114.540,386.299 193.300 M245.335 77.350 C 250.304 77.380,258.494 77.380,263.535 77.350 C 268.576 77.320,264.510 77.296,254.500 77.296 C 244.490 77.296,240.366 77.320,245.335 77.350 M306.650 77.350 C 315.423 77.379,329.778 77.379,338.550 77.350 C 347.322 77.321,340.145 77.298,322.600 77.298 C 305.055 77.298,297.877 77.321,306.650 77.350 M245.335 109.150 C 250.304 109.180,258.494 109.180,263.535 109.150 C 268.576 109.120,264.510 109.096,254.500 109.096 C 244.490 109.096,240.366 109.120,245.335 109.150 M306.650 109.150 C 315.423 109.179,329.778 109.179,338.550 109.150 C 347.322 109.121,340.145 109.098,322.600 109.098 C 305.055 109.098,297.877 109.121,306.650 109.150 M245.335 127.350 C 250.304 127.380,258.494 127.380,263.535 127.350 C 268.576 127.320,264.510 127.296,254.500 127.296 C 244.490 127.296,240.366 127.320,245.335 127.350 M306.650 127.350 C 315.423 127.379,329.778 127.379,338.550 127.350 C 347.322 127.321,340.145 127.298,322.600 127.298 C 305.055 127.298,297.877 127.321,306.650 127.350 M245.335 159.150 C 250.304 159.180,258.494 159.180,263.535 159.150 C 268.576 159.120,264.510 159.096,254.500 159.096 C 244.490 159.096,240.366 159.120,245.335 159.150 M306.650 159.150 C 315.423 159.179,329.778 159.179,338.550 159.150 C 347.322 159.121,340.145 159.098,322.600 159.098 C 305.055 159.098,297.877 159.121,306.650 159.150 M245.335 177.350 C 250.304 177.380,258.494 177.380,263.535 177.350 C 268.576 177.320,264.510 177.296,254.500 177.296 C 244.490 177.296,240.366 177.320,245.335 177.350 M306.650 177.350 C 315.423 177.379,329.778 177.379,338.550 177.350 C 347.322 177.321,340.145 177.298,322.600 177.298 C 305.055 177.298,297.877 177.321,306.650 177.350 M62.650 262.738 C 62.843 262.788,63.158 262.788,63.350 262.738 C 63.542 262.688,63.385 262.646,63.000 262.646 C 62.615 262.646,62.458 262.688,62.650 262.738 M67.450 262.938 C 67.642 262.988,67.958 262.988,68.150 262.938 C 68.343 262.888,68.185 262.846,67.800 262.846 C 67.415 262.846,67.258 262.888,67.450 262.938 M72.850 263.138 C 73.043 263.188,73.358 263.188,73.550 263.138 C 73.742 263.088,73.585 263.046,73.200 263.046 C 72.815 263.046,72.658 263.088,72.850 263.138 M79.352 263.341 C 79.601 263.389,79.961 263.387,80.152 263.337 C 80.344 263.287,80.140 263.248,79.700 263.250 C 79.260 263.253,79.104 263.294,79.352 263.341 M87.952 263.541 C 88.201 263.589,88.561 263.587,88.752 263.537 C 88.944 263.487,88.740 263.448,88.300 263.450 C 87.860 263.453,87.704 263.494,87.952 263.541 " stroke="none" fill="#83af96" fill-rule="evenodd"></path><path id="path2" d="M245.250 209.150 C 250.283 209.180,258.518 209.180,263.550 209.150 C 268.583 209.120,264.465 209.096,254.400 209.096 C 244.335 209.096,240.218 209.120,245.250 209.150 M306.866 209.150 C 315.647 209.179,329.957 209.179,338.666 209.150 C 347.375 209.121,340.190 209.098,322.700 209.098 C 305.210 209.098,298.085 209.121,306.866 209.150 M245.250 259.150 C 250.283 259.180,258.518 259.180,263.550 259.150 C 268.583 259.120,264.465 259.096,254.400 259.096 C 244.335 259.096,240.218 259.120,245.250 259.150 M306.866 259.150 C 315.647 259.179,329.957 259.179,338.666 259.150 C 347.375 259.121,340.190 259.098,322.700 259.098 C 305.210 259.098,298.085 259.121,306.866 259.150 M77.952 263.341 C 78.201 263.389,78.561 263.387,78.752 263.337 C 78.944 263.287,78.740 263.248,78.300 263.250 C 77.860 263.253,77.704 263.294,77.952 263.341 M86.050 263.543 C 86.353 263.589,86.848 263.589,87.150 263.543 C 87.453 263.497,87.205 263.460,86.600 263.460 C 85.995 263.460,85.748 263.497,86.050 263.543 M245.250 309.150 C 250.283 309.180,258.518 309.180,263.550 309.150 C 268.583 309.120,264.465 309.096,254.400 309.096 C 244.335 309.096,240.218 309.120,245.250 309.150 M306.650 309.150 C 315.423 309.179,329.778 309.179,338.550 309.150 C 347.322 309.121,340.145 309.098,322.600 309.098 C 305.055 309.098,297.877 309.121,306.650 309.150 " stroke="none" fill="#5c9c74" fill-rule="evenodd"></path></g></svg>