<svg id="svg" version="1.1" width="400" height="393.7716262975779" viewBox="0 0 400 393.7716262975779" xmlns="http://www.w3.org/2000/svg" xmlns:xlink="http://www.w3.org/1999/xlink" ><g id="svgg"><path id="path0" d="M86.700 256.355 L 86.700 282.956 62.266 282.956 L 37.833 282.956 37.833 291.626 L 37.833 300.296 62.266 300.296 L 86.700 300.296 86.700 326.897 L 86.700 353.498 96.749 353.498 L 106.798 353.498 106.798 326.897 L 106.798 300.296 131.429 300.296 L 156.059 300.296 156.059 291.626 L 156.059 282.956 131.429 282.956 L 106.798 282.956 106.798 256.355 L 106.798 229.754 96.749 229.754 L 86.700 229.754 86.700 256.355 " stroke="none" fill="#cc2434" fill-rule="evenodd"></path><path id="path1" d="M194.286 18.124 L 194.286 36.248 177.833 36.350 L 161.379 36.453 161.271 42.463 C 161.186 47.127,161.274 48.475,161.665 48.481 C 161.941 48.486,169.394 48.482,178.227 48.473 L 194.286 48.456 194.286 66.748 C 194.286 83.063,194.353 85.065,194.909 85.278 C 196.119 85.743,206.320 85.542,206.818 85.044 C 207.172 84.690,207.291 80.035,207.291 66.522 L 207.291 48.473 223.219 48.473 C 231.980 48.473,239.428 48.365,239.771 48.234 C 240.704 47.876,240.704 36.853,239.771 36.495 C 239.428 36.364,231.980 36.256,223.219 36.256 L 207.291 36.256 207.291 18.128 L 207.291 0.000 200.788 0.000 L 194.286 0.000 194.286 18.124 M33.366 154.351 C 33.222 154.496,33.103 162.654,33.103 172.479 L 33.103 190.345 16.552 190.345 L 0.000 190.345 0.000 196.624 L 0.000 202.904 16.552 202.670 L 33.103 202.437 33.103 220.430 L 33.103 238.424 39.606 238.424 L 46.108 238.424 46.108 220.497 L 46.108 202.570 62.562 202.467 L 79.015 202.365 79.124 196.355 L 79.232 190.345 62.670 190.345 L 46.108 190.345 46.108 172.690 C 46.108 159.483,45.989 154.915,45.635 154.562 C 45.127 154.053,33.858 153.860,33.366 154.351 " stroke="none" fill="#749ca8" fill-rule="evenodd"></path><path id="path2" d="M293.990 256.355 L 293.990 282.956 269.360 282.956 L 244.729 282.956 244.729 291.626 L 244.729 300.296 269.360 300.296 L 293.990 300.296 293.990 326.897 L 293.990 353.498 303.842 353.498 L 313.695 353.498 313.695 326.897 L 313.695 300.296 338.325 300.296 L 362.956 300.296 362.956 291.626 L 362.956 282.956 338.325 282.956 L 313.695 282.956 313.695 256.355 L 313.695 229.754 303.842 229.754 L 293.990 229.754 293.990 256.355 M166.995 341.970 C 171.601 342.033,179.138 342.033,183.744 341.970 C 188.350 341.907,184.581 341.855,175.369 341.855 C 166.158 341.855,162.389 341.907,166.995 341.970 M217.438 341.970 C 222.044 342.033,229.581 342.033,234.187 341.970 C 238.793 341.907,235.025 341.855,225.813 341.855 C 216.601 341.855,212.833 341.907,217.438 341.970 " stroke="none" fill="#144484" fill-rule="evenodd"></path><path id="path3" d="M160.961 36.769 C 160.853 37.051,160.815 39.666,160.876 42.581 L 160.989 47.882 161.184 42.068 C 161.376 36.345,161.351 35.751,160.961 36.769 M293.990 64.821 L 293.990 91.823 269.360 91.823 L 244.729 91.823 244.729 100.493 L 244.729 109.163 269.360 109.163 L 293.990 109.163 293.990 135.770 L 293.990 162.378 303.744 162.273 L 313.498 162.167 313.599 135.668 L 313.700 109.169 338.229 109.067 L 362.759 108.966 362.759 100.493 L 362.759 92.020 338.229 91.918 L 313.700 91.817 313.599 64.923 L 313.498 38.030 303.744 37.924 L 293.990 37.819 293.990 64.821 M223.448 48.473 L 207.094 48.683 223.251 48.769 C 233.168 48.822,239.637 48.707,240.000 48.473 C 240.325 48.263,240.414 48.130,240.197 48.177 C 239.980 48.224,232.443 48.357,223.448 48.473 M170.371 48.768 C 174.883 48.831,182.154 48.831,186.529 48.768 C 190.904 48.705,187.212 48.653,178.325 48.653 C 169.438 48.653,165.859 48.705,170.371 48.768 M2.463 203.247 C 3.709 203.325,5.749 203.325,6.995 203.247 C 8.241 203.169,7.222 203.105,4.729 203.105 C 2.236 203.105,1.217 203.169,2.463 203.247 " stroke="none" fill="#5c7f98" fill-rule="evenodd"></path><path id="path4" d="M349.951 170.049 L 349.951 188.768 333.399 188.768 L 316.847 188.768 316.847 196.650 L 316.847 204.532 333.399 204.532 L 349.951 204.532 349.951 222.857 L 349.951 241.182 358.621 241.182 L 367.291 241.182 367.291 222.857 L 367.291 204.532 383.645 204.532 L 400.000 204.532 400.000 196.650 L 400.000 188.768 383.645 188.768 L 367.291 188.768 367.291 170.673 C 367.291 160.720,367.183 152.296,367.051 151.953 C 366.844 151.412,365.706 151.330,358.381 151.330 L 349.951 151.330 349.951 170.049 M192.184 305.287 C 192.039 305.432,191.921 313.767,191.921 323.810 L 191.921 342.069 175.369 342.069 L 158.818 342.069 158.818 349.951 L 158.818 357.833 175.369 357.833 L 191.921 357.833 191.921 375.961 L 191.921 394.089 200.591 394.089 L 209.261 394.089 209.261 375.961 L 209.261 357.833 225.813 357.833 L 242.365 357.833 242.365 349.951 L 242.365 342.069 225.813 342.069 L 209.261 342.069 209.261 323.547 L 209.261 305.025 200.854 305.025 C 196.230 305.025,192.328 305.143,192.184 305.287 " stroke="none" fill="#5c6494" fill-rule="evenodd"></path><path id="path5" d="M87.750 38.095 C 87.606 38.240,87.488 50.388,87.488 65.090 L 87.488 91.823 62.660 91.823 L 37.833 91.823 37.833 100.099 L 37.833 108.374 62.660 108.374 L 87.488 108.374 87.488 135.377 L 87.488 162.379 96.847 162.273 L 106.207 162.167 106.308 135.271 L 106.409 108.374 131.234 108.374 L 156.059 108.374 156.059 100.099 L 156.059 91.823 131.232 91.823 L 106.404 91.823 106.404 64.828 L 106.404 37.833 97.209 37.833 C 92.151 37.833,87.895 37.951,87.750 38.095 M188.768 155.468 L 188.768 185.222 161.379 185.222 L 133.990 185.222 133.990 196.650 L 133.990 208.079 161.379 208.079 L 188.768 208.079 188.768 237.838 L 188.768 267.598 200.296 267.494 L 211.823 267.389 211.924 237.737 L 212.025 208.084 239.313 207.983 L 266.601 207.882 266.706 196.552 L 266.810 185.222 239.415 185.222 L 212.020 185.222 212.020 155.468 L 212.020 125.714 200.394 125.714 L 188.768 125.714 188.768 155.468 " stroke="none" fill="#ec742c" fill-rule="evenodd"></path></g></svg>